<?xml version="1.0" encoding="UTF-8" standalone="no"?>
<!DOCTYPE svg PUBLIC "-//W3C//DTD SVG 1.1//EN"
 "http://www.w3.org/Graphics/SVG/1.1/DTD/svg11.dtd">
<!-- Generated by graphviz version 13.1.2 (20250808.2320)
 -->
<!-- Title: G Pages: 1 -->
<svg width="187pt" height="260pt"
 viewBox="0.00 0.00 187.00 260.00" xmlns="http://www.w3.org/2000/svg" xmlns:xlink="http://www.w3.org/1999/xlink">
<g id="graph0" class="graph" transform="scale(1 1) rotate(0) translate(4 256)">
<title>G</title><style>.edge>path:hover{stroke-width:8}</style>
<polygon fill="white" stroke="none" points="-4,4 -4,-256 182.74,-256 182.74,4 -4,4"/>
<!-- __main__ -->
<g id="node1" class="node">
<title>__main__</title><style>.edge>path:hover{stroke-width:8}</style>
<polygon fill="blue" stroke="black" points="58,-252 0,-252 0,-216 58,-216 58,-252"/>
<text xml:space="preserve" text-anchor="middle" x="29" y="-230.12" font-family="Helvetica,sans-Serif" font-size="10.00" fill="white">__main__</text>
</g>
<!-- django -->
<g id="node4" class="node">
<title>django</title><style>.edge>path:hover{stroke-width:8}</style>
<polygon fill="blue" stroke="black" points="56,-180 2,-180 2,-144 56,-144 56,-180"/>
<text xml:space="preserve" text-anchor="middle" x="29" y="-158.12" font-family="Helvetica,sans-Serif" font-size="10.00" fill="white">django</text>
</g>
<!-- __main__&#45;&gt;django -->
<g id="edge1" class="edge">
<title>__main__&#45;&gt;django</title><style>.edge>path:hover{stroke-width:8}</style>
<path fill="none" stroke="black" d="M29,-215.7C29,-208.41 29,-199.73 29,-191.54"/>
<polygon fill="blue" stroke="black" points="32.5,-191.62 29,-181.62 25.5,-191.62 32.5,-191.62"/>
</g>
<!-- adapters -->
<g id="node2" class="node">
<title>adapters</title><style>.edge>path:hover{stroke-width:8}</style>
<polygon fill="blue" stroke="black" points="125,-108 71,-108 71,-72 125,-72 125,-108"/>
<text xml:space="preserve" text-anchor="middle" x="98" y="-86.12" font-family="Helvetica,sans-Serif" font-size="10.00" fill="white">adapters</text>
</g>
<!-- frameworks -->
<g id="node5" class="node">
<title>frameworks</title><style>.edge>path:hover{stroke-width:8}</style>
<polygon fill="blue" stroke="black" points="131.5,-36 64.5,-36 64.5,0 131.5,0 131.5,-36"/>
<text xml:space="preserve" text-anchor="middle" x="98" y="-14.12" font-family="Helvetica,sans-Serif" font-size="10.00" fill="white">frameworks</text>
</g>
<!-- adapters&#45;&gt;frameworks -->
<g id="edge2" class="edge">
<title>adapters&#45;&gt;frameworks</title><style>.edge>path:hover{stroke-width:8}</style>
<path fill="none" stroke="black" d="M98,-71.7C98,-64.41 98,-55.73 98,-47.54"/>
<polygon fill="blue" stroke="black" points="101.5,-47.62 98,-37.62 94.5,-47.62 101.5,-47.62"/>
</g>
<!-- core -->
<g id="node3" class="node">
<title>core</title><style>.edge>path:hover{stroke-width:8}</style>
<ellipse fill="#47c247" stroke="black" cx="143" cy="-234" rx="27" ry="18"/>
<text xml:space="preserve" text-anchor="middle" x="143" y="-230.12" font-family="Helvetica,sans-Serif" font-size="10.00" fill="#000000">core</text>
</g>
<!-- core&#45;&gt;frameworks -->
<g id="edge3" class="edge">
<title>core&#45;&gt;frameworks</title><style>.edge>path:hover{stroke-width:8}</style>
<path fill="none" stroke="black" d="M151.57,-216.45C164.17,-190.03 185.28,-136.64 176,-91"/>
</g>
<!-- use_cases -->
<g id="node6" class="node">
<title>use_cases</title><style>.edge>path:hover{stroke-width:8}</style>
<ellipse fill="#c431c4" stroke="black" cx="111" cy="-162" rx="37.42" ry="18"/>
<text xml:space="preserve" text-anchor="middle" x="111" y="-158.12" font-family="Helvetica,sans-Serif" font-size="10.00" fill="#ffffff">use_cases</text>
</g>
<!-- core&#45;&gt;use_cases -->
<g id="edge4" class="edge">
<title>core&#45;&gt;use_cases</title><style>.edge>path:hover{stroke-width:8}</style>
<path fill="none" stroke="black" d="M135.42,-216.41C131.84,-208.59 127.49,-199.06 123.45,-190.23"/>
<polygon fill="#47c247" stroke="black" points="126.72,-188.97 119.38,-181.33 120.36,-191.88 126.72,-188.97"/>
</g>
<!-- django&#45;&gt;adapters -->
<g id="edge5" class="edge">
<title>django&#45;&gt;adapters</title><style>.edge>path:hover{stroke-width:8}</style>
<path fill="none" stroke="black" d="M46.06,-143.7C54.24,-135.39 64.21,-125.28 73.22,-116.14"/>
<polygon fill="blue" stroke="black" points="75.55,-118.76 80.08,-109.18 70.56,-113.85 75.55,-118.76"/>
</g>
<!-- django&#45;&gt;frameworks -->
<g id="edge6" class="edge">
<title>django&#45;&gt;frameworks</title><style>.edge>path:hover{stroke-width:8}</style>
<path fill="none" stroke="black" d="M34.03,-143.75C39.68,-125.43 49.69,-95.88 62,-72 66.56,-63.14 72.34,-54 77.93,-45.84"/>
<polygon fill="blue" stroke="black" points="80.76,-47.9 83.67,-37.72 75.04,-43.86 80.76,-47.9"/>
</g>
<!-- use_cases&#45;&gt;adapters -->
<g id="edge7" class="edge">
<title>use_cases&#45;&gt;adapters</title><style>.edge>path:hover{stroke-width:8}</style>
<path fill="none" stroke="black" d="M107.79,-143.7C106.42,-136.32 104.78,-127.52 103.25,-119.25"/>
<polygon fill="#c431c4" stroke="black" points="106.72,-118.79 101.45,-109.59 99.84,-120.06 106.72,-118.79"/>
</g>
<!-- use_cases&#45;&gt;frameworks -->
<g id="edge8" class="edge">
<title>use_cases&#45;&gt;frameworks</title><style>.edge>path:hover{stroke-width:8}</style>
<path fill="none" stroke="black" d="M176,-89C172,-69.33 156.95,-53.61 141.13,-42.09"/>
<polygon fill="#c431c4" stroke="black" points="143.3,-39.33 133.06,-36.64 139.39,-45.14 143.3,-39.33"/>
<path fill="none" stroke="black" d="M136.16,-148.44C156.53,-136.27 181.09,-116.03 176,-91"/>
</g>
</g>
</svg>
